HIERARCHY
ROOT Hips
{
	OFFSET 0.000000 83.214638 0.000000
	CHANNELS 6 Xposition Yposition Zposition Xrotation Yrotation Zrotation
	JOINT Pelvis
	{
		OFFSET 0.000000 0.000000 0.000000
		CHANNELS 3 Xrotation Yrotation Zrotation
		JOINT LeftUpLeg
		{
			OFFSET 8.479700 -4.795502 -0.379100
			CHANNELS 3 Xrotation Yrotation Zrotation
			JOINT LeftLeg
			{
				OFFSET 0.024144 -32.555107 0.112900
				CHANNELS 3 Xrotation Yrotation Zrotation
				JOINT LeftFoot
				{
					OFFSET -0.024144 -32.638630 -3.012600
					CHANNELS 3 Xrotation Yrotation Zrotation
					JOINT LeftToeBase
					{
						OFFSET 0.970200 -13.225400 11.864200
						CHANNELS 3 Xrotation Yrotation Zrotation
						End Site
						{
							OFFSET 0.000000 12.319262 0.000000
						}
					}
					JOINT LFootTongue
					{
						OFFSET 1.142400 -1.059800 6.665200
						CHANNELS 3 Xrotation Yrotation Zrotation
						End Site
						{
							OFFSET 0.000000 12.319262 0.000000
						}
					}
				}
				JOINT LeftPantLeg
				{
					OFFSET 0.918482 -16.533964 -2.284700
					CHANNELS 3 Xrotation Yrotation Zrotation
					End Site
					{
						OFFSET 0.350399 24.744368 0.000000
					}
				}
			}
		}
		JOINT RightUpLeg
		{
			OFFSET -8.479700 -4.795502 -0.379100
			CHANNELS 3 Xrotation Yrotation Zrotation
			JOINT RightLeg
			{
				OFFSET -0.023144 -32.555092 0.112900
				CHANNELS 3 Xrotation Yrotation Zrotation
				JOINT RightFoot
				{
					OFFSET 0.023144 -32.638641 -3.012700
					CHANNELS 3 Xrotation Yrotation Zrotation
					JOINT RightToeBase
					{
						OFFSET -0.970200 -13.225400 11.864200
						CHANNELS 3 Xrotation Yrotation Zrotation
						End Site
						{
							OFFSET 0.000000 12.319244 0.000000
						}
					}
					JOINT RFootTongue
					{
						OFFSET -1.142200 -1.059800 6.665200
						CHANNELS 3 Xrotation Yrotation Zrotation
						End Site
						{
							OFFSET 0.000000 12.319243 0.000000
						}
					}
				}
				JOINT RightPantLeg
				{
					OFFSET -0.919482 -16.533978 -2.284800
					CHANNELS 3 Xrotation Yrotation Zrotation
					End Site
					{
						OFFSET -0.350400 24.744419 0.000000
					}
				}
			}
		}
	}
	JOINT Spine
	{
		OFFSET 0.000000 7.722000 1.166200
		CHANNELS 3 Xrotation Yrotation Zrotation
		JOINT Spine1
		{
			OFFSET 0.000000 12.024101 0.248800
			CHANNELS 3 Xrotation Yrotation Zrotation
			JOINT Spine2
			{
				OFFSET 0.000000 11.502998 -0.491200
				CHANNELS 3 Xrotation Yrotation Zrotation
				JOINT Neck
				{
					OFFSET 0.000000 18.430702 -3.123100
					CHANNELS 3 Xrotation Yrotation Zrotation
					JOINT Head
					{
						OFFSET 0.000000 9.051102 1.034000
						CHANNELS 3 Xrotation Yrotation Zrotation
						JOINT HairB
						{
							OFFSET 0.208400 24.786102 24.822300
							CHANNELS 3 Xrotation Yrotation Zrotation
							End Site
							{
								OFFSET 0.000000 32.263779 0.000000
							}
						}
						JOINT HairA
						{
							OFFSET -7.081100 24.428299 23.196600
							CHANNELS 3 Xrotation Yrotation Zrotation
							End Site
							{
								OFFSET 0.000000 32.263779 0.000000
							}
						}
						JOINT Hat
						{
							OFFSET 16.728800 15.048294 -15.439601
							CHANNELS 3 Xrotation Yrotation Zrotation
							End Site
							{
								OFFSET 0.000000 32.263779 0.000000
							}
						}
					}
				}
				JOINT LeftShoulder
				{
					OFFSET 6.197800 13.665199 -4.064700
					CHANNELS 3 Xrotation Yrotation Zrotation
					JOINT LeftArm
					{
						OFFSET 7.778100 -0.187103 -1.709300
						CHANNELS 3 Xrotation Yrotation Zrotation
						JOINT LeftForeArm
						{
							OFFSET 22.049376 0.000000 0.000000
							CHANNELS 3 Xrotation Yrotation Zrotation
							JOINT LeftHand
							{
								OFFSET 23.009392 0.000000 0.000000
								CHANNELS 3 Xrotation Yrotation Zrotation
								JOINT LeftHandThumb1
								{
									OFFSET 3.507191 -2.063065 3.133727
									CHANNELS 3 Xrotation Yrotation Zrotation
									JOINT LeftHandThumb2
									{
										OFFSET 3.101337 -1.790558 1.790558
										CHANNELS 3 Xrotation Yrotation Zrotation
										JOINT LeftHandThumb3
										{
											OFFSET 3.058640 -1.765907 1.765906
											CHANNELS 3 Xrotation Yrotation Zrotation
											End Site
											{
												OFFSET -0.415260 3.926476 -0.049563
											}
										}
									}
								}
								JOINT LeftHandIndex1
								{
									OFFSET 11.334419 -0.901459 3.706815
									CHANNELS 3 Xrotation Yrotation Zrotation
									JOINT LeftHandIndex2
									{
										OFFSET 3.283112 0.000000 0.000000
										CHANNELS 3 Xrotation Yrotation Zrotation
										JOINT LeftHandIndex3
										{
											OFFSET 3.323853 0.000000 0.000000
											CHANNELS 3 Xrotation Yrotation Zrotation
											End Site
											{
												OFFSET -1.135597 3.097809 0.402452
											}
										}
									}
								}
								JOINT LeftHandMiddle1
								{
									OFFSET 11.335861 0.000000 0.000000
									CHANNELS 3 Xrotation Yrotation Zrotation
									JOINT LeftHandMiddle2
									{
										OFFSET 3.410492 0.000000 0.000000
										CHANNELS 3 Xrotation Yrotation Zrotation
										JOINT LeftHandMiddle3
										{
											OFFSET 3.312172 0.000000 0.000000
											CHANNELS 3 Xrotation Yrotation Zrotation
											End Site
											{
												OFFSET -1.150200 3.080154 0.400270
											}
										}
									}
								}
								JOINT LeftHandRing1
								{
									OFFSET 11.514786 -0.013176 -3.003090
									CHANNELS 3 Xrotation Yrotation Zrotation
									JOINT LeftHandRing2
									{
										OFFSET 3.053307 0.000000 0.000000
										CHANNELS 3 Xrotation Yrotation Zrotation
										JOINT LeftHandRing3
										{
											OFFSET 3.295807 0.000000 0.000000
											CHANNELS 3 Xrotation Yrotation Zrotation
											End Site
											{
												OFFSET -1.281006 3.013344 0.375733
											}
										}
									}
								}
								JOINT LeftHandPinky1
								{
									OFFSET 10.518692 -0.960396 -5.730441
									CHANNELS 3 Xrotation Yrotation Zrotation
									JOINT LeftHandPinky2
									{
										OFFSET 2.861649 0.000000 0.000000
										CHANNELS 3 Xrotation Yrotation Zrotation
										JOINT LeftHandPinky3
										{
											OFFSET 2.863380 0.000000 0.000000
											CHANNELS 3 Xrotation Yrotation Zrotation
											End Site
											{
												OFFSET -0.843597 2.711159 0.369971
											}
										}
									}
								}
							}
							JOINT LSleeve
							{
								OFFSET 6.676277 -0.344902 -1.011730
								CHANNELS 3 Xrotation Yrotation Zrotation
								End Site
								{
									OFFSET 0.000000 14.885353 0.000000
								}
							}
						}
					}
				}
				JOINT RightShoulder
				{
					OFFSET -6.197800 13.665199 -4.064700
					CHANNELS 3 Xrotation Yrotation Zrotation
					JOINT RightArm
					{
						OFFSET -7.778100 -0.187103 -1.709300
						CHANNELS 3 Xrotation Yrotation Zrotation
						JOINT RightForeArm
						{
							OFFSET -22.049376 0.000000 0.000000
							CHANNELS 3 Xrotation Yrotation Zrotation
							JOINT RightHand
							{
								OFFSET -23.009392 0.000000 0.000000
								CHANNELS 3 Xrotation Yrotation Zrotation
								JOINT RightHandThumb1
								{
									OFFSET -3.507191 -2.063065 3.133727
									CHANNELS 3 Xrotation Yrotation Zrotation
									JOINT RightHandThumb2
									{
										OFFSET -3.101337 -1.790558 1.790558
										CHANNELS 3 Xrotation Yrotation Zrotation
										JOINT RightHandThumb3
										{
											OFFSET -3.058640 -1.765907 1.765906
											CHANNELS 3 Xrotation Yrotation Zrotation
											End Site
											{
												OFFSET 0.415260 3.926476 -0.049563
											}
										}
									}
								}
								JOINT RightHandIndex1
								{
									OFFSET -11.334419 -0.901459 3.706815
									CHANNELS 3 Xrotation Yrotation Zrotation
									JOINT RightHandIndex2
									{
										OFFSET -3.283112 0.000000 0.000000
										CHANNELS 3 Xrotation Yrotation Zrotation
										JOINT RightHandIndex3
										{
											OFFSET -3.323853 0.000000 0.000000
											CHANNELS 3 Xrotation Yrotation Zrotation
											End Site
											{
												OFFSET 1.135597 3.097809 0.402452
											}
										}
									}
								}
								JOINT RightHandMiddle1
								{
									OFFSET -11.335861 0.000000 0.000000
									CHANNELS 3 Xrotation Yrotation Zrotation
									JOINT RightHandMiddle2
									{
										OFFSET -3.410492 0.000000 0.000000
										CHANNELS 3 Xrotation Yrotation Zrotation
										JOINT RightHandMiddle3
										{
											OFFSET -3.312172 0.000000 0.000000
											CHANNELS 3 Xrotation Yrotation Zrotation
											End Site
											{
												OFFSET 1.150200 3.080154 0.400270
											}
										}
									}
								}
								JOINT RightHandRing1
								{
									OFFSET -11.514786 -0.013176 -3.003090
									CHANNELS 3 Xrotation Yrotation Zrotation
									JOINT RightHandRing2
									{
										OFFSET -3.053307 0.000000 0.000000
										CHANNELS 3 Xrotation Yrotation Zrotation
										JOINT RightHandRing3
										{
											OFFSET -3.295807 0.000000 0.000000
											CHANNELS 3 Xrotation Yrotation Zrotation
											End Site
											{
												OFFSET 1.281006 3.013344 0.375733
											}
										}
									}
								}
								JOINT RightHandPinky1
								{
									OFFSET -10.518692 -0.960396 -5.730441
									CHANNELS 3 Xrotation Yrotation Zrotation
									JOINT RightHandPinky2
									{
										OFFSET -2.861649 0.000000 0.000000
										CHANNELS 3 Xrotation Yrotation Zrotation
										JOINT RightHandPinky3
										{
											OFFSET -2.863380 0.000000 0.000000
											CHANNELS 3 Xrotation Yrotation Zrotation
											End Site
											{
												OFFSET 0.843597 2.711159 0.369971
											}
										}
									}
								}
							}
							JOINT RSleeve
							{
								OFFSET -6.676277 -0.344902 -1.011730
								CHANNELS 3 Xrotation Yrotation Zrotation
								End Site
								{
									OFFSET 0.000000 14.885353 0.000000
								}
							}
						}
					}
				}
				JOINT Backpack
				{
					OFFSET 0.000000 -2.471497 36.677502
					CHANNELS 3 Xrotation Yrotation Zrotation
					End Site
					{
						OFFSET 0.000000 20.427315 0.000000
					}
				}
				JOINT Hood
				{
					OFFSET 0.000000 18.754097 -10.431000
					CHANNELS 3 Xrotation Yrotation Zrotation
					JOINT Hood1
					{
						OFFSET 0.000000 -5.011002 -7.685901
						CHANNELS 3 Xrotation Yrotation Zrotation
						End Site
						{
							OFFSET 0.000000 9.175140 0.000000
						}
					}
				}
				JOINT LHoodieString
				{
					OFFSET 5.250500 16.397697 3.089900
					CHANNELS 3 Xrotation Yrotation Zrotation
					JOINT LHoodieString1
					{
						OFFSET 0.257700 -6.364304 3.694600
						CHANNELS 3 Xrotation Yrotation Zrotation
						JOINT LHoodieString2
						{
							OFFSET 0.000000 -9.643799 2.679100
							CHANNELS 3 Xrotation Yrotation Zrotation
							End Site
							{
								OFFSET 0.000000 10.009018 0.000000
							}
						}
					}
				}
				JOINT RHoodieString
				{
					OFFSET -5.250500 16.397697 3.089900
					CHANNELS 3 Xrotation Yrotation Zrotation
					JOINT RHoodieString1
					{
						OFFSET -0.257700 -6.364304 3.694600
						CHANNELS 3 Xrotation Yrotation Zrotation
						JOINT RHoodieString2
						{
							OFFSET 0.000000 -9.643799 2.679100
							CHANNELS 3 Xrotation Yrotation Zrotation
							End Site
							{
								OFFSET 0.000000 10.009018 0.000000
							}
						}
					}
				}
			}
			JOINT LBackpack_Strap
			{
				OFFSET 15.223200 -7.719803 -6.610900
				CHANNELS 3 Xrotation Yrotation Zrotation
				End Site
				{
					OFFSET 0.000000 16.040596 0.000000
				}
			}
			JOINT RBackpack_Strap
			{
				OFFSET -15.223000 -7.719803 -6.610900
				CHANNELS 3 Xrotation Yrotation Zrotation
				End Site
				{
					OFFSET 0.000000 16.040596 0.000000
				}
			}
		}
	}
	JOINT BoyFacialAnim_Joint
	{
		OFFSET 1.000000 -82.208099 -1.550900
		CHANNELS 3 Xrotation Yrotation Zrotation
		End Site
		{
			OFFSET 0.000000 30.012791 0.000000
		}
	}
}
MOTION
Frames: 4
Frame Time: 0.033333
-0.401984 75.821342 2.620258 -13.180142 -1.763795 -5.123595 -0.000001 0.000000 -0.000000 -32.002687 20.298711 12.026844 42.613953 -9.357592 10.043476 -0.850541 -7.842836 -1.380841 -0.000000 0.000000 -0.000000 -0.000000 0.000000 -0.000000 0.000000 0.000001 -0.000000 -23.526264 -35.133451 -2.023223 39.468255 9.602035 -10.284310 -2.796242 6.606423 -5.007338 0.000000 -0.000000 0.000000 0.000000 -0.000000 0.000000 -0.000000 -0.000001 -0.000000 5.922117 -0.717366 3.090396 9.021538 -0.430000 -0.455594 9.028561 -0.103889 -0.473627 15.499584 0.680417 0.863641 -2.573560 0.818022 5.726067 -0.000003 0.000000 -0.000000 -0.000003 0.000000 -0.000000 -0.000003 0.000000 -0.000000 0.681782 3.908470 -11.397476 74.323544 -65.285496 4.646516 -0.000003 -18.010085 -0.000010 -25.659132 7.272755 -3.768728 21.734260 5.841487 -2.497395 -16.162753 18.936382 19.036130 -0.000001 0.000002 0.000003 0.152618 1.444580 -12.061563 0.086637 1.091013 -9.079582 -0.000002 0.000001 -0.000003 0.152213 1.442689 -12.045575 0.086939 1.092919 -9.095572 0.000005 -0.000000 0.000002 0.152624 1.444573 -12.061569 0.086631 1.091025 -9.079590 0.000000 -0.000001 0.000001 0.985199 5.412792 -11.600964 0.078379 -2.964042 -9.583905 0.000000 -0.000000 -0.000000 0.000000 -0.000000 -0.000000 1.412996 0.332767 10.813720 8.850515 40.127184 57.894043 -0.000003 26.003462 -0.000001 37.130360 -9.963351 12.845709 -0.389746 -6.638713 -15.665597 8.907279 -22.771338 0.157762 -0.000001 0.000004 0.000001 0.174544 -1.551246 12.839280 0.140307 -1.392662 11.506920 -0.000000 -0.000000 0.000002 0.174548 -1.551257 12.839286 0.140308 -1.392645 11.506922 0.000002 0.000000 -0.000000 0.174548 -1.551244 12.839287 0.140303 -1.392657 11.506920 -0.000001 0.000000 0.000000 0.174546 -1.551239 12.839279 0.140307 -1.392656 11.506916 -0.000000 -0.000001 0.000004 -0.000003 0.000001 -0.000000 0.000001 -0.000000 0.000000 0.000001 -0.000000 0.000000 0.000001 -0.000000 0.000000 0.000001 -0.000000 0.000000 0.000001 -0.000000 0.000000 0.000002 0.000000 0.000000 0.000001 -0.000000 0.000000 0.000001 -0.000000 0.000000 0.000002 0.000000 0.000000 0.000000 -0.000000 -0.000000 0.000000 -0.000000 -0.000000 -0.000001 0.000000 -0.000000 
-0.374289 75.823303 2.620878 -13.187989 -1.837325 -5.088939 0.000000 0.000000 -0.000000 -31.983334 20.418982 12.020143 42.596605 -9.359314 10.043789 -0.854815 -7.864781 -1.353408 0.000000 -0.000000 -0.000000 0.000000 -0.000000 -0.000000 -0.000000 -0.000001 0.000000 -23.548636 -34.935041 -2.014407 39.485061 9.597737 -10.287364 -2.786600 6.523262 -4.954061 -0.000000 -0.000000 -0.000000 -0.000000 -0.000000 -0.000000 -0.000000 -0.000000 0.000001 5.920228 -0.709035 3.074986 9.015933 -0.413233 -0.454230 9.022703 -0.086283 -0.473040 15.501755 0.686838 0.839503 -2.569937 0.854904 5.720952 0.000002 0.000000 -0.000000 0.000002 0.000000 -0.000000 0.000002 0.000000 -0.000000 0.684057 3.939022 -11.452422 74.202472 -65.177811 4.592531 0.000004 -18.130771 -0.000010 -25.270467 7.391020 -4.135372 21.734263 5.841486 -2.497395 -16.162755 18.936387 19.036130 -0.000002 0.000000 0.000002 0.152620 1.444580 -12.061562 0.086642 1.091014 -9.079586 -0.000004 0.000000 -0.000004 0.152214 1.442687 -12.045576 0.086935 1.092918 -9.095575 0.000001 -0.000000 0.000000 0.152631 1.444573 -12.061569 0.086629 1.091024 -9.079586 -0.000002 -0.000000 -0.000000 0.985198 5.412792 -11.600966 0.078378 -2.964042 -9.583905 -0.000000 0.000001 -0.000000 -0.000000 -0.000000 -0.000000 1.414563 0.343949 10.791921 8.851293 40.106642 57.862726 -0.000012 26.024370 0.000035 37.255783 -9.909322 12.917786 -0.389743 -6.638714 -15.665596 8.907278 -22.771337 0.157761 -0.000000 0.000005 0.000000 0.174544 -1.551245 12.839278 0.140303 -1.392662 11.506918 -0.000001 0.000000 0.000002 0.174548 -1.551257 12.839291 0.140307 -1.392645 11.506922 0.000003 0.000001 0.000002 0.174548 -1.551245 12.839285 0.140303 -1.392658 11.506924 0.000002 -0.000000 0.000002 0.174547 -1.551239 12.839275 0.140308 -1.392656 11.506919 -0.000000 -0.000001 0.000002 -0.000002 -0.000001 0.000000 0.000000 -0.000000 0.000000 0.000000 -0.000000 0.000000 0.000000 -0.000000 0.000000 0.000000 -0.000000 0.000000 0.000000 -0.000000 -0.000000 0.000000 -0.000001 -0.000000 0.000000 -0.000000 0.000000 0.000000 -0.000000 -0.000000 0.000000 -0.000001 -0.000000 -0.000000 0.000000 -0.000000 -0.000000 0.000000 -0.000000 0.000000 0.000000 -0.000000 
-0.352794 75.822601 2.622911 -13.196241 -1.895861 -5.049539 0.000000 0.000000 -0.000000 -31.962393 20.519309 12.003404 42.586742 -9.360784 10.043950 -0.861218 -7.879923 -1.331757 -0.000000 -0.000000 0.000000 -0.000000 -0.000000 0.000000 0.000000 -0.000000 -0.000000 -23.585646 -34.767425 -2.028312 39.519304 9.586683 -10.295800 -2.787323 6.490800 -4.904599 -0.000000 -0.000000 -0.000000 -0.000000 -0.000000 -0.000000 -0.000000 0.000000 -0.000000 5.918520 -0.702365 3.048867 9.011899 -0.402152 -0.453031 9.018515 -0.075171 -0.472220 15.504654 0.694576 0.815026 -2.576174 0.881121 5.745639 -0.000000 -0.000000 -0.000000 -0.000000 -0.000000 -0.000000 -0.000000 -0.000000 -0.000000 0.686102 3.965377 -11.500591 73.964726 -65.059765 4.417137 -0.000006 -18.276563 -0.000007 -24.852702 7.516682 -4.483117 21.734260 5.841487 -2.497395 -16.162751 18.936384 19.036133 -0.000002 -0.000000 0.000002 0.152617 1.444580 -12.061563 0.086637 1.091013 -9.079583 0.000000 0.000000 -0.000003 0.152214 1.442688 -12.045574 0.086935 1.092918 -9.095575 -0.000001 -0.000001 -0.000002 0.152625 1.444573 -12.061569 0.086630 1.091022 -9.079586 0.000004 -0.000002 -0.000001 0.985198 5.412791 -11.600964 0.078377 -2.964041 -9.583907 0.000002 0.000001 -0.000002 -0.000000 -0.000000 0.000001 1.419722 0.370545 10.793312 8.882745 40.061197 57.791788 0.000004 26.096797 -0.000016 37.375249 -9.868408 13.004053 -0.389746 -6.638713 -15.665592 8.907281 -22.771337 0.157760 -0.000002 -0.000002 -0.000002 0.174545 -1.551244 12.839278 0.140306 -1.392663 11.506926 -0.000001 0.000001 -0.000002 0.174550 -1.551256 12.839289 0.140308 -1.392644 11.506920 -0.000001 0.000001 -0.000002 0.174549 -1.551244 12.839286 0.140301 -1.392657 11.506920 -0.000002 -0.000000 0.000002 0.174546 -1.551238 12.839276 0.140307 -1.392656 11.506914 0.000000 0.000000 -0.000001 -0.000003 0.000001 -0.000002 -0.000000 -0.000000 -0.000000 -0.000000 -0.000000 -0.000000 -0.000000 -0.000000 -0.000000 -0.000000 -0.000000 -0.000000 -0.000000 -0.000000 -0.000000 -0.000001 -0.000000 -0.000000 -0.000000 -0.000000 -0.000000 -0.000000 -0.000000 -0.000000 -0.000001 -0.000000 -0.000000 0.000000 0.000000 -0.000000 0.000000 0.000000 -0.000000 0.000000 0.000000 -0.000000 
-0.340216 75.818085 2.626776 -13.203711 -1.934177 -5.007275 -0.000000 -0.000000 -0.000000 -31.944720 20.590734 11.978143 42.591089 -9.361186 10.044077 -0.872194 -7.887549 -1.317515 0.000000 0.000000 0.000000 0.000000 0.000000 -0.000000 -0.000000 0.000001 -0.000000 -23.640395 -34.645592 -2.069056 39.578020 9.574871 -10.310866 -2.802300 6.522289 -4.862674 -0.000000 -0.000000 -0.000000 -0.000000 -0.000000 -0.000000 -0.000000 0.000001 0.000001 5.916445 -0.697703 3.012290 9.008165 -0.397412 -0.451910 9.014733 -0.071260 -0.471072 15.511839 0.702970 0.793773 -2.592633 0.892664 5.800244 -0.000001 -0.000000 0.000000 -0.000001 -0.000000 0.000000 -0.000001 -0.000000 0.000000 0.687713 3.984595 -11.536989 73.650879 -64.944505 4.149668 0.000006 -18.432580 0.000012 -24.458351 7.645403 -4.768952 21.734260 5.841486 -2.497395 -16.162755 18.936384 19.036132 0.000002 -0.000001 0.000002 0.152615 1.444580 -12.061562 0.086641 1.091013 -9.079586 0.000001 0.000000 -0.000002 0.152211 1.442688 -12.045573 0.086934 1.092919 -9.095575 0.000001 -0.000001 0.000000 0.152625 1.444573 -12.061569 0.086629 1.091024 -9.079586 -0.000001 0.000001 -0.000002 0.985193 5.412793 -11.600965 0.078380 -2.964043 -9.583907 -0.000001 0.000001 -0.000002 0.000000 0.000001 -0.000000 1.426891 0.405395 10.810870 8.935166 39.998763 57.704047 0.000002 26.203539 -0.000024 37.476404 -9.842741 13.093954 -0.389744 -6.638713 -15.665592 8.907282 -22.771338 0.157762 -0.000000 -0.000003 0.000000 0.174545 -1.551245 12.839278 0.140304 -1.392663 11.506921 0.000001 0.000000 0.000002 0.174548 -1.551257 12.839287 0.140306 -1.392645 11.506922 0.000002 0.000001 -0.000000 0.174549 -1.551244 12.839286 0.140301 -1.392657 11.506919 0.000001 -0.000000 0.000002 0.174548 -1.551239 12.839279 0.140308 -1.392655 11.506914 0.000000 -0.000000 -0.000002 -0.000000 -0.000001 -0.000000 0.000000 0.000000 -0.000000 0.000000 0.000000 -0.000000 0.000000 0.000000 -0.000000 0.000000 0.000000 -0.000000 0.000000 0.000000 -0.000000 -0.000001 -0.000000 -0.000000 0.000000 0.000000 -0.000000 0.000000 0.000000 -0.000000 -0.000001 -0.000000 -0.000000 -0.000000 0.000000 -0.000000 -0.000000 0.000000 -0.000000 -0.000000 -0.000000 -0.000000 
